<mxfile host="Electron" agent="Mozilla/5.0 (Windows NT 10.0; Win64; x64) AppleWebKit/537.36 (KHTML, like Gecko) draw.io/27.0.9 Chrome/134.0.6998.205 Electron/35.4.0 Safari/537.36" version="27.0.9">
  <diagram name="Page-1" id="v5RC7oqcV3FagCWNpgD_">
    <mxGraphModel dx="1042" dy="722" grid="1" gridSize="10" guides="1" tooltips="1" connect="1" arrows="1" fold="1" page="1" pageScale="1" pageWidth="1920" pageHeight="1200" math="0" shadow="0">
      <root>
        <mxCell id="0" />
        <mxCell id="1" parent="0" />
        <mxCell id="k4XBM5nCFAGDovLeNTTp-1" value="" style="rounded=0;whiteSpace=wrap;html=1;fillStyle=hatch;dashed=1;" parent="1" vertex="1">
          <mxGeometry x="360" y="250" width="200" height="500" as="geometry" />
        </mxCell>
        <mxCell id="k4XBM5nCFAGDovLeNTTp-2" value="&lt;font style=&quot;font-size: 14px;&quot;&gt;&lt;b&gt;Sources&lt;/b&gt;&lt;/font&gt;" style="rounded=0;whiteSpace=wrap;html=1;" parent="1" vertex="1">
          <mxGeometry x="415" y="230" width="90" height="30" as="geometry" />
        </mxCell>
        <mxCell id="k4XBM5nCFAGDovLeNTTp-12" style="edgeStyle=orthogonalEdgeStyle;rounded=0;orthogonalLoop=1;jettySize=auto;html=1;entryX=0;entryY=0.5;entryDx=0;entryDy=0;" parent="1" source="k4XBM5nCFAGDovLeNTTp-3" target="k4XBM5nCFAGDovLeNTTp-9" edge="1">
          <mxGeometry relative="1" as="geometry" />
        </mxCell>
        <mxCell id="k4XBM5nCFAGDovLeNTTp-13" style="edgeStyle=orthogonalEdgeStyle;rounded=0;orthogonalLoop=1;jettySize=auto;html=1;entryX=0;entryY=0.5;entryDx=0;entryDy=0;" parent="1" source="k4XBM5nCFAGDovLeNTTp-3" target="k4XBM5nCFAGDovLeNTTp-10" edge="1">
          <mxGeometry relative="1" as="geometry" />
        </mxCell>
        <mxCell id="k4XBM5nCFAGDovLeNTTp-14" style="edgeStyle=orthogonalEdgeStyle;rounded=0;orthogonalLoop=1;jettySize=auto;html=1;entryX=0;entryY=0.5;entryDx=0;entryDy=0;" parent="1" source="k4XBM5nCFAGDovLeNTTp-3" target="k4XBM5nCFAGDovLeNTTp-11" edge="1">
          <mxGeometry relative="1" as="geometry" />
        </mxCell>
        <mxCell id="k4XBM5nCFAGDovLeNTTp-3" value="" style="sketch=0;pointerEvents=1;shadow=0;dashed=0;html=1;strokeColor=none;labelPosition=center;verticalLabelPosition=bottom;verticalAlign=top;outlineConnect=0;align=center;shape=mxgraph.office.concepts.folder;fillColor=#7FBA42;" parent="1" vertex="1">
          <mxGeometry x="440" y="362.5" width="50" height="45" as="geometry" />
        </mxCell>
        <mxCell id="k4XBM5nCFAGDovLeNTTp-4" value="CRM" style="rounded=0;whiteSpace=wrap;html=1;fillStyle=hatch;strokeColor=none;" parent="1" vertex="1">
          <mxGeometry x="440" y="415" width="50" height="20" as="geometry" />
        </mxCell>
        <mxCell id="k4XBM5nCFAGDovLeNTTp-18" style="edgeStyle=orthogonalEdgeStyle;rounded=0;orthogonalLoop=1;jettySize=auto;html=1;entryX=0;entryY=0.5;entryDx=0;entryDy=0;" parent="1" source="k4XBM5nCFAGDovLeNTTp-5" target="k4XBM5nCFAGDovLeNTTp-15" edge="1">
          <mxGeometry relative="1" as="geometry" />
        </mxCell>
        <mxCell id="k4XBM5nCFAGDovLeNTTp-19" style="edgeStyle=orthogonalEdgeStyle;rounded=0;orthogonalLoop=1;jettySize=auto;html=1;entryX=0;entryY=0.5;entryDx=0;entryDy=0;" parent="1" source="k4XBM5nCFAGDovLeNTTp-5" target="k4XBM5nCFAGDovLeNTTp-16" edge="1">
          <mxGeometry relative="1" as="geometry" />
        </mxCell>
        <mxCell id="k4XBM5nCFAGDovLeNTTp-20" style="edgeStyle=orthogonalEdgeStyle;rounded=0;orthogonalLoop=1;jettySize=auto;html=1;entryX=0;entryY=0.5;entryDx=0;entryDy=0;" parent="1" source="k4XBM5nCFAGDovLeNTTp-5" target="k4XBM5nCFAGDovLeNTTp-17" edge="1">
          <mxGeometry relative="1" as="geometry" />
        </mxCell>
        <mxCell id="k4XBM5nCFAGDovLeNTTp-5" value="" style="sketch=0;pointerEvents=1;shadow=0;dashed=0;html=1;strokeColor=none;labelPosition=center;verticalLabelPosition=bottom;verticalAlign=top;outlineConnect=0;align=center;shape=mxgraph.office.concepts.folder;fillColor=#DA4026;" parent="1" vertex="1">
          <mxGeometry x="435" y="522.5" width="50" height="45" as="geometry" />
        </mxCell>
        <mxCell id="k4XBM5nCFAGDovLeNTTp-6" value="ERP" style="rounded=0;whiteSpace=wrap;html=1;fillStyle=hatch;strokeColor=none;" parent="1" vertex="1">
          <mxGeometry x="435" y="575" width="50" height="20" as="geometry" />
        </mxCell>
        <mxCell id="k4XBM5nCFAGDovLeNTTp-7" value="" style="rounded=1;whiteSpace=wrap;html=1;fillStyle=hatch;strokeColor=#d79b00;fillColor=none;" parent="1" vertex="1">
          <mxGeometry x="600" y="290" width="220" height="460" as="geometry" />
        </mxCell>
        <mxCell id="k4XBM5nCFAGDovLeNTTp-8" value="&lt;font style=&quot;font-size: 16px;&quot;&gt;&lt;b&gt;Bronze layer&lt;/b&gt;&lt;/font&gt;" style="rounded=1;whiteSpace=wrap;html=1;fillColor=#ffe6cc;strokeColor=#d79b00;" parent="1" vertex="1">
          <mxGeometry x="620" y="230" width="180" height="45" as="geometry" />
        </mxCell>
        <mxCell id="l66NvQlMjFTAcxqSqtSb-7" style="edgeStyle=orthogonalEdgeStyle;rounded=0;orthogonalLoop=1;jettySize=auto;html=1;entryX=0;entryY=0.5;entryDx=0;entryDy=0;" parent="1" source="k4XBM5nCFAGDovLeNTTp-9" target="l66NvQlMjFTAcxqSqtSb-1" edge="1">
          <mxGeometry relative="1" as="geometry" />
        </mxCell>
        <mxCell id="k4XBM5nCFAGDovLeNTTp-9" value="&lt;font style=&quot;font-size: 16px;&quot;&gt;crm_sales_details&lt;/font&gt;" style="rounded=1;whiteSpace=wrap;html=1;fillColor=#ffe6cc;strokeColor=#d79b00;" parent="1" vertex="1">
          <mxGeometry x="620" y="330" width="180" height="30" as="geometry" />
        </mxCell>
        <mxCell id="l66NvQlMjFTAcxqSqtSb-8" style="edgeStyle=orthogonalEdgeStyle;rounded=0;orthogonalLoop=1;jettySize=auto;html=1;entryX=0;entryY=0.5;entryDx=0;entryDy=0;" parent="1" source="k4XBM5nCFAGDovLeNTTp-10" target="l66NvQlMjFTAcxqSqtSb-2" edge="1">
          <mxGeometry relative="1" as="geometry" />
        </mxCell>
        <mxCell id="k4XBM5nCFAGDovLeNTTp-10" value="&lt;span style=&quot;font-size: 16px;&quot;&gt;crm_cust_info&lt;/span&gt;" style="rounded=1;whiteSpace=wrap;html=1;fillColor=#ffe6cc;strokeColor=#d79b00;" parent="1" vertex="1">
          <mxGeometry x="620" y="370" width="180" height="30" as="geometry" />
        </mxCell>
        <mxCell id="l66NvQlMjFTAcxqSqtSb-9" style="edgeStyle=orthogonalEdgeStyle;rounded=0;orthogonalLoop=1;jettySize=auto;html=1;entryX=0;entryY=0.5;entryDx=0;entryDy=0;" parent="1" source="k4XBM5nCFAGDovLeNTTp-11" target="l66NvQlMjFTAcxqSqtSb-3" edge="1">
          <mxGeometry relative="1" as="geometry" />
        </mxCell>
        <mxCell id="k4XBM5nCFAGDovLeNTTp-11" value="&lt;font style=&quot;font-size: 16px;&quot;&gt;crm_prd_info&lt;/font&gt;" style="rounded=1;whiteSpace=wrap;html=1;fillColor=#ffe6cc;strokeColor=#d79b00;" parent="1" vertex="1">
          <mxGeometry x="620" y="410" width="180" height="30" as="geometry" />
        </mxCell>
        <mxCell id="l66NvQlMjFTAcxqSqtSb-10" style="edgeStyle=orthogonalEdgeStyle;rounded=0;orthogonalLoop=1;jettySize=auto;html=1;entryX=0;entryY=0.5;entryDx=0;entryDy=0;" parent="1" source="k4XBM5nCFAGDovLeNTTp-15" target="l66NvQlMjFTAcxqSqtSb-4" edge="1">
          <mxGeometry relative="1" as="geometry" />
        </mxCell>
        <mxCell id="k4XBM5nCFAGDovLeNTTp-15" value="&lt;font style=&quot;font-size: 16px;&quot;&gt;erp_cust_az12&lt;/font&gt;" style="rounded=1;whiteSpace=wrap;html=1;fillColor=#ffe6cc;strokeColor=#d79b00;" parent="1" vertex="1">
          <mxGeometry x="620" y="485" width="180" height="30" as="geometry" />
        </mxCell>
        <mxCell id="l66NvQlMjFTAcxqSqtSb-11" style="edgeStyle=orthogonalEdgeStyle;rounded=0;orthogonalLoop=1;jettySize=auto;html=1;entryX=0;entryY=0.5;entryDx=0;entryDy=0;" parent="1" source="k4XBM5nCFAGDovLeNTTp-16" target="l66NvQlMjFTAcxqSqtSb-5" edge="1">
          <mxGeometry relative="1" as="geometry" />
        </mxCell>
        <mxCell id="k4XBM5nCFAGDovLeNTTp-16" value="&lt;font style=&quot;font-size: 16px;&quot;&gt;erp_loc_a101&lt;/font&gt;" style="rounded=1;whiteSpace=wrap;html=1;fillColor=#ffe6cc;strokeColor=#d79b00;" parent="1" vertex="1">
          <mxGeometry x="620" y="530" width="180" height="30" as="geometry" />
        </mxCell>
        <mxCell id="l66NvQlMjFTAcxqSqtSb-12" style="edgeStyle=orthogonalEdgeStyle;rounded=0;orthogonalLoop=1;jettySize=auto;html=1;entryX=0;entryY=0.5;entryDx=0;entryDy=0;" parent="1" source="k4XBM5nCFAGDovLeNTTp-17" target="l66NvQlMjFTAcxqSqtSb-6" edge="1">
          <mxGeometry relative="1" as="geometry" />
        </mxCell>
        <mxCell id="k4XBM5nCFAGDovLeNTTp-17" value="&lt;font style=&quot;font-size: 16px;&quot;&gt;erp_px_cat_g1v2&lt;/font&gt;" style="rounded=1;whiteSpace=wrap;html=1;fillColor=#ffe6cc;strokeColor=#d79b00;" parent="1" vertex="1">
          <mxGeometry x="620" y="570" width="180" height="30" as="geometry" />
        </mxCell>
        <mxCell id="k4XBM5nCFAGDovLeNTTp-21" value="" style="rounded=1;whiteSpace=wrap;html=1;fillStyle=hatch;strokeColor=#666666;fillColor=none;gradientColor=#b3b3b3;" parent="1" vertex="1">
          <mxGeometry x="870" y="290" width="220" height="460" as="geometry" />
        </mxCell>
        <mxCell id="k4XBM5nCFAGDovLeNTTp-22" value="" style="rounded=1;whiteSpace=wrap;html=1;fillStyle=hatch;strokeColor=#d6b656;fillColor=none;gradientColor=#ffd966;" parent="1" vertex="1">
          <mxGeometry x="1140" y="290" width="220" height="460" as="geometry" />
        </mxCell>
        <mxCell id="k4XBM5nCFAGDovLeNTTp-23" value="&lt;font style=&quot;font-size: 16px;&quot;&gt;&lt;b&gt;Silver layer&lt;/b&gt;&lt;/font&gt;" style="rounded=1;whiteSpace=wrap;html=1;fillColor=#f5f5f5;strokeColor=#666666;gradientColor=#b3b3b3;" parent="1" vertex="1">
          <mxGeometry x="890" y="230" width="180" height="45" as="geometry" />
        </mxCell>
        <mxCell id="k4XBM5nCFAGDovLeNTTp-24" value="&lt;font style=&quot;font-size: 16px;&quot;&gt;&lt;b&gt;Gold layer&lt;/b&gt;&lt;/font&gt;" style="rounded=1;whiteSpace=wrap;html=1;fillColor=#fff2cc;strokeColor=#d6b656;gradientColor=#ffd966;" parent="1" vertex="1">
          <mxGeometry x="1160" y="230" width="180" height="45" as="geometry" />
        </mxCell>
        <mxCell id="l66NvQlMjFTAcxqSqtSb-1" value="&lt;font style=&quot;font-size: 16px;&quot;&gt;crm_sales_details&lt;/font&gt;" style="rounded=1;whiteSpace=wrap;html=1;fillColor=#f5f5f5;strokeColor=#666666;gradientColor=#b3b3b3;" parent="1" vertex="1">
          <mxGeometry x="890" y="330" width="180" height="30" as="geometry" />
        </mxCell>
        <mxCell id="l66NvQlMjFTAcxqSqtSb-2" value="&lt;span style=&quot;font-size: 16px;&quot;&gt;crm_cust_info&lt;/span&gt;" style="rounded=1;whiteSpace=wrap;html=1;fillColor=#f5f5f5;strokeColor=#666666;gradientColor=#b3b3b3;" parent="1" vertex="1">
          <mxGeometry x="890" y="370" width="180" height="30" as="geometry" />
        </mxCell>
        <mxCell id="l66NvQlMjFTAcxqSqtSb-3" value="&lt;font style=&quot;font-size: 16px;&quot;&gt;crm_prd_info&lt;/font&gt;" style="rounded=1;whiteSpace=wrap;html=1;fillColor=#f5f5f5;strokeColor=#666666;gradientColor=#b3b3b3;" parent="1" vertex="1">
          <mxGeometry x="890" y="410" width="180" height="30" as="geometry" />
        </mxCell>
        <mxCell id="l66NvQlMjFTAcxqSqtSb-4" value="&lt;font style=&quot;font-size: 16px;&quot;&gt;erp_cust_az12&lt;/font&gt;" style="rounded=1;whiteSpace=wrap;html=1;fillColor=#f5f5f5;strokeColor=#666666;gradientColor=#b3b3b3;" parent="1" vertex="1">
          <mxGeometry x="890" y="485" width="180" height="30" as="geometry" />
        </mxCell>
        <mxCell id="l66NvQlMjFTAcxqSqtSb-5" value="&lt;font style=&quot;font-size: 16px;&quot;&gt;erp_loc_a101&lt;/font&gt;" style="rounded=1;whiteSpace=wrap;html=1;fillColor=#f5f5f5;strokeColor=#666666;gradientColor=#b3b3b3;" parent="1" vertex="1">
          <mxGeometry x="890" y="530" width="180" height="30" as="geometry" />
        </mxCell>
        <mxCell id="l66NvQlMjFTAcxqSqtSb-6" value="&lt;font style=&quot;font-size: 16px;&quot;&gt;erp_px_cat_g1v2&lt;/font&gt;" style="rounded=1;whiteSpace=wrap;html=1;fillColor=#f5f5f5;strokeColor=#666666;gradientColor=#b3b3b3;" parent="1" vertex="1">
          <mxGeometry x="890" y="570" width="180" height="30" as="geometry" />
        </mxCell>
        <mxCell id="u-Nsb1I8T8YPmSuMmJ41-1" value="&lt;font style=&quot;font-size: 16px;&quot;&gt;fact_sales&lt;/font&gt;" style="rounded=1;whiteSpace=wrap;html=1;fillColor=#fff2cc;strokeColor=#d6b656;gradientColor=#ffd966;" vertex="1" parent="1">
          <mxGeometry x="1160" y="390" width="180" height="30" as="geometry" />
        </mxCell>
        <mxCell id="u-Nsb1I8T8YPmSuMmJ41-2" value="&lt;span style=&quot;font-size: 16px;&quot;&gt;dim_customers&lt;/span&gt;" style="rounded=1;whiteSpace=wrap;html=1;fillColor=#fff2cc;strokeColor=#d6b656;gradientColor=#ffd966;" vertex="1" parent="1">
          <mxGeometry x="1160" y="455" width="180" height="30" as="geometry" />
        </mxCell>
        <mxCell id="u-Nsb1I8T8YPmSuMmJ41-3" value="&lt;font style=&quot;font-size: 16px;&quot;&gt;dim_products&lt;/font&gt;" style="rounded=1;whiteSpace=wrap;html=1;fillColor=#fff2cc;strokeColor=#d6b656;gradientColor=#ffd966;" vertex="1" parent="1">
          <mxGeometry x="1160" y="522.5" width="180" height="30" as="geometry" />
        </mxCell>
        <mxCell id="u-Nsb1I8T8YPmSuMmJ41-6" value="" style="endArrow=classic;html=1;rounded=0;exitX=1;exitY=0.5;exitDx=0;exitDy=0;entryX=0;entryY=0.5;entryDx=0;entryDy=0;" edge="1" parent="1" source="l66NvQlMjFTAcxqSqtSb-1" target="u-Nsb1I8T8YPmSuMmJ41-1">
          <mxGeometry width="50" height="50" relative="1" as="geometry">
            <mxPoint x="1100" y="390" as="sourcePoint" />
            <mxPoint x="1150" y="340" as="targetPoint" />
          </mxGeometry>
        </mxCell>
        <mxCell id="u-Nsb1I8T8YPmSuMmJ41-7" value="" style="endArrow=classic;html=1;rounded=0;exitX=1;exitY=0.5;exitDx=0;exitDy=0;entryX=0;entryY=0.5;entryDx=0;entryDy=0;jumpStyle=gap;" edge="1" parent="1" source="l66NvQlMjFTAcxqSqtSb-2" target="u-Nsb1I8T8YPmSuMmJ41-2">
          <mxGeometry width="50" height="50" relative="1" as="geometry">
            <mxPoint x="1120" y="420" as="sourcePoint" />
            <mxPoint x="1210" y="480" as="targetPoint" />
          </mxGeometry>
        </mxCell>
        <mxCell id="u-Nsb1I8T8YPmSuMmJ41-8" value="" style="endArrow=classic;html=1;rounded=0;exitX=1;exitY=0.5;exitDx=0;exitDy=0;entryX=0;entryY=0.5;entryDx=0;entryDy=0;jumpStyle=gap;" edge="1" parent="1" source="l66NvQlMjFTAcxqSqtSb-3" target="u-Nsb1I8T8YPmSuMmJ41-3">
          <mxGeometry width="50" height="50" relative="1" as="geometry">
            <mxPoint x="1110" y="460" as="sourcePoint" />
            <mxPoint x="1200" y="520" as="targetPoint" />
          </mxGeometry>
        </mxCell>
        <mxCell id="u-Nsb1I8T8YPmSuMmJ41-9" value="" style="endArrow=classic;html=1;rounded=0;exitX=1;exitY=0.5;exitDx=0;exitDy=0;jumpStyle=gap;" edge="1" parent="1" source="l66NvQlMjFTAcxqSqtSb-4">
          <mxGeometry width="50" height="50" relative="1" as="geometry">
            <mxPoint x="1110" y="460" as="sourcePoint" />
            <mxPoint x="1160" y="470" as="targetPoint" />
          </mxGeometry>
        </mxCell>
        <mxCell id="u-Nsb1I8T8YPmSuMmJ41-10" value="" style="endArrow=classic;html=1;rounded=0;exitX=1;exitY=0.5;exitDx=0;exitDy=0;jumpStyle=gap;" edge="1" parent="1" source="l66NvQlMjFTAcxqSqtSb-5">
          <mxGeometry width="50" height="50" relative="1" as="geometry">
            <mxPoint x="1120" y="490" as="sourcePoint" />
            <mxPoint x="1160" y="470" as="targetPoint" />
          </mxGeometry>
        </mxCell>
        <mxCell id="u-Nsb1I8T8YPmSuMmJ41-11" value="" style="endArrow=classic;html=1;rounded=0;exitX=1;exitY=0.5;exitDx=0;exitDy=0;jumpStyle=gap;" edge="1" parent="1" source="l66NvQlMjFTAcxqSqtSb-6">
          <mxGeometry width="50" height="50" relative="1" as="geometry">
            <mxPoint x="1110" y="520" as="sourcePoint" />
            <mxPoint x="1160" y="530" as="targetPoint" />
          </mxGeometry>
        </mxCell>
        <mxCell id="u-Nsb1I8T8YPmSuMmJ41-13" value="Data Flow Diagram" style="text;html=1;align=center;verticalAlign=middle;whiteSpace=wrap;rounded=0;fontSize=42;fontStyle=1" vertex="1" parent="1">
          <mxGeometry x="370" y="150" width="470" height="30" as="geometry" />
        </mxCell>
      </root>
    </mxGraphModel>
  </diagram>
</mxfile>
